<?xml version="1.0" encoding="utf-8"?>
<!-- Generator: Adobe Illustrator 19.0.0, SVG Export Plug-In . SVG Version: 6.00 Build 0)  -->
<svg version="1.1" id="Layer_1" xmlns="http://www.w3.org/2000/svg" xmlns:xlink="http://www.w3.org/1999/xlink" x="0px" y="0px"
	 viewBox="0 0 150 41.2" style="enable-background:new 0 0 150 41.2;" xml:space="preserve">
<style type="text/css">
	.st0{fill:#3D3530;}
</style>
<g id="XMLID_417_">
	<path id="XMLID_419_" class="st0" d="M27.1,4.3v5.8c0,0.3-0.1,0.4-0.3,0.4c-0.2,0-0.4-0.1-0.5-0.3c-0.1-0.2-0.3-0.6-0.6-1.1
		c-0.3-0.5-0.8-1.1-1.3-1.6C23.7,6.9,23,6.4,22.2,6c-0.9-0.4-1.9-0.6-3.1-0.6c-0.8,0-1.6,0.1-2.3,0.2c-0.7,0.1-1.3,0.4-1.8,0.7
		c-0.5,0.3-0.9,0.7-1.1,1.2c-0.3,0.5-0.4,1.1-0.4,1.8v11.7v-0.4c0,0.1,0,0.2,0.1,0.3c0.1,0.1,0.2,0.1,0.3,0.1h3.4
		c0.8,0,1.5-0.2,2-0.5c0.5-0.3,0.9-0.7,1.2-1.1c0.3-0.4,0.5-0.8,0.6-1.3c0.1-0.4,0.2-0.7,0.2-0.9c0-0.1,0.1-0.2,0.2-0.3
		c0.1-0.1,0.2-0.1,0.3-0.1c0.1,0,0.2,0.1,0.3,0.1c0.1,0.1,0.1,0.2,0.1,0.3v9.1c0,0.1,0,0.3-0.1,0.3s-0.2,0.1-0.3,0.1
		c-0.1,0-0.2,0-0.3-0.1s-0.2-0.2-0.2-0.3c0-0.2-0.1-0.5-0.2-0.9c-0.1-0.4-0.3-0.8-0.6-1.3c-0.3-0.4-0.7-0.8-1.2-1.1
		c-0.5-0.3-1.2-0.5-2-0.5h-3.4c-0.1,0-0.2,0-0.3,0.1c-0.1,0.1-0.1,0.2-0.1,0.3v-0.4v12.4c0,0.8,0.2,1.5,0.5,2
		c0.4,0.5,0.8,0.9,1.2,1.2c0.5,0.3,0.9,0.5,1.4,0.6c0.5,0.1,0.8,0.2,1,0.2c0.2,0,0.3,0.1,0.4,0.2c0.1,0.1,0.1,0.2,0.1,0.3
		c0,0.1-0.1,0.2-0.1,0.3c-0.1,0.1-0.2,0.1-0.4,0.1h-17c-0.2,0-0.3,0-0.4-0.1C0.1,39.6,0,39.5,0,39.4c0-0.1,0-0.2,0.1-0.3
		C0.2,39.1,0.3,39,0.5,39c0.2,0,0.6-0.1,1-0.2s0.9-0.3,1.4-0.6c0.5-0.3,0.9-0.7,1.2-1.2c0.4-0.5,0.5-1.2,0.5-2V8.8
		c0-0.8-0.2-1.5-0.5-2C3.8,6.2,3.4,5.8,2.9,5.5C2.4,5.2,1.9,5,1.5,4.9C1,4.8,0.7,4.7,0.5,4.7c-0.2,0-0.3-0.1-0.4-0.2
		C0,4.4,0,4.3,0,4.2C0,4.1,0.1,4,0.1,3.9c0.1-0.1,0.2-0.1,0.4-0.1h26C26.9,3.8,27.1,4,27.1,4.3z"/>
	<path id="XMLID_421_" class="st0" d="M39.1,15.1c1.8,0,3.5,0.3,5.1,1c1.5,0.6,2.9,1.5,4,2.7c1.1,1.1,2,2.5,2.6,4
		c0.6,1.5,0.9,3.2,0.9,4.9c0,1.8-0.3,3.4-1,5c-0.7,1.5-1.6,2.9-2.8,4.1c-1.2,1.2-2.6,2.1-4.1,2.8c-1.6,0.7-3.3,1-5.1,1
		c-1.8,0-3.5-0.3-5.1-1c-1.5-0.6-2.9-1.5-4-2.7c-1.1-1.1-2-2.5-2.6-4c-0.6-1.5-0.9-3.2-0.9-4.9c0-1.7,0.3-3.4,1-4.9
		c0.7-1.6,1.6-2.9,2.8-4.1c1.2-1.2,2.6-2.1,4.1-2.8C35.6,15.5,37.3,15.1,39.1,15.1z M38.8,39.1c0.9,0,1.6-0.3,2.2-0.9
		c0.6-0.6,1.2-1.4,1.6-2.4c0.4-1,0.7-2.2,0.9-3.6c0.2-1.4,0.3-2.8,0.3-4.4c0-1.5-0.1-3-0.3-4.4c-0.2-1.4-0.5-2.6-0.9-3.6
		s-0.9-1.8-1.6-2.4c-0.6-0.6-1.4-0.9-2.2-0.9s-1.6,0.3-2.2,0.9C36,18,35.4,18.8,35,19.8s-0.7,2.2-0.9,3.6c-0.2,1.4-0.3,2.8-0.3,4.4
		c0,1.5,0.1,3,0.3,4.4c0.2,1.4,0.5,2.6,0.9,3.6c0.4,1,1,1.8,1.6,2.4C37.2,38.8,38,39.1,38.8,39.1z"/>
	<path id="XMLID_432_" class="st0" d="M69.8,15.1c0.7,0,1.4,0.1,1.9,0.3c0.5,0.2,0.9,0.4,1.3,0.7c0.3,0.3,0.6,0.7,0.7,1.1
		c0.1,0.4,0.2,0.9,0.2,1.3c0,0.9-0.3,1.5-0.8,2c-0.5,0.5-1.3,0.7-2.2,0.7c-0.7,0-1.2-0.1-1.6-0.4c-0.4-0.2-0.7-0.5-1-0.8
		c-0.3-0.3-0.5-0.6-0.8-0.8c-0.2-0.2-0.5-0.4-0.9-0.4c-0.3,0-0.6,0.1-1,0.3c-0.3,0.2-0.7,0.6-1,1.2c-0.3,0.6-0.5,1.4-0.7,2.3
		c-0.2,1-0.3,2.3-0.3,3.9v9.2c0,0.7,0.1,1.3,0.4,1.7c0.2,0.4,0.5,0.7,0.8,0.9c0.3,0.2,0.6,0.4,0.9,0.4C66,39,66.3,39,66.4,39
		c0.1,0,0.2,0.1,0.3,0.2c0.1,0.1,0.1,0.2,0.1,0.3c0,0.1-0.1,0.2-0.1,0.2c-0.1,0.1-0.2,0.1-0.3,0.1h-2.7h-0.2h-6.7h-0.2h-2.7
		c-0.1,0-0.3,0-0.3-0.1c-0.1-0.1-0.1-0.2-0.1-0.2c0-0.1,0-0.2,0.1-0.3c0.1-0.1,0.2-0.1,0.3-0.2c0.1,0,0.4-0.1,0.7-0.1
		c0.3-0.1,0.6-0.2,0.9-0.4c0.3-0.2,0.6-0.5,0.8-0.9c0.2-0.4,0.4-1,0.4-1.7v-15c0-0.2-0.1-0.4-0.3-0.4c0,0-0.2,0-0.4-0.1
		c-0.2-0.1-0.5-0.1-0.8-0.2c-0.3-0.1-0.5-0.1-0.8-0.2c-0.2-0.1-0.4-0.1-0.4-0.1c-0.2-0.1-0.4-0.2-0.4-0.4c0-0.2,0.1-0.3,0.4-0.4
		c0.7-0.2,1.4-0.4,2.3-0.7c0.8-0.3,1.6-0.6,2.4-0.9c0.8-0.3,1.6-0.7,2.4-1.1c0.8-0.4,1.4-0.8,2.1-1.2c0.2-0.1,0.3-0.2,0.5-0.1
		c0.2,0,0.3,0.2,0.3,0.4v3.8c0.6-1.4,1.5-2.4,2.5-3.1C67.2,15.5,68.4,15.1,69.8,15.1z"/>
	<path id="XMLID_434_" class="st0" d="M92.2,15.1c1.4,0,2.7,0.2,3.7,0.6c1.1,0.4,2,0.9,2.8,1.5c0.8,0.6,1.4,1.4,1.9,2.2
		c0.5,0.8,0.9,1.7,1.2,2.6c0.3,0.9,0.5,1.8,0.6,2.7c0.1,0.9,0.2,1.8,0.2,2.6c0,2-0.2,3.8-0.7,5.4c-0.5,1.6-1.2,3-2.2,4.2
		s-2.2,2-3.7,2.7c-1.5,0.6-3.2,0.9-5.2,0.9c-1.1,0-2.1-0.1-3-0.2c-0.9-0.1-1.6-0.3-2.3-0.6c-0.7-0.3-1.4-0.6-1.9-1
		c-0.6-0.4-1.2-0.9-1.8-1.4c-0.1-0.1-0.1-0.1-0.2-0.1c-0.1,0-0.1,0-0.2,0.1c-0.2,0.2-0.5,0.4-0.8,0.7c-0.3,0.3-0.7,0.7-1.1,1
		c-0.4,0.4-0.8,0.7-1.2,1.1c-0.4,0.4-0.7,0.7-0.9,1c-0.1,0.2-0.3,0.2-0.5,0.1c-0.2-0.1-0.2-0.2-0.2-0.4V23.3c0-1.5,0-2.9,0-4.3
		c0-1.4,0-2.8,0-4.1c0-1.3,0-2.5,0-3.6c0-1.1,0-2.1,0-2.9c0-0.8,0-1.7,0-2.6c0-0.2-0.1-0.4-0.3-0.4c0,0-0.2,0-0.4-0.1
		c-0.2-0.1-0.5-0.1-0.8-0.2c-0.3-0.1-0.5-0.1-0.8-0.2c-0.2-0.1-0.4-0.1-0.4-0.1c-0.2-0.1-0.4-0.2-0.4-0.4c0-0.2,0.1-0.3,0.4-0.4
		c0.7-0.2,1.4-0.4,2.3-0.7c0.8-0.3,1.6-0.6,2.4-0.9c0.8-0.3,1.6-0.7,2.4-1.1c0.8-0.4,1.4-0.8,2.1-1.2C83.2,0,83.4-0.1,83.5,0
		c0.2,0,0.3,0.2,0.3,0.4v18.5c0,0.1,0.1,0.1,0.2,0.1c0.1,0,0.1,0,0.2-0.1c0.2-0.2,0.4-0.5,0.8-0.9c0.4-0.4,0.9-0.8,1.5-1.3
		c0.6-0.4,1.4-0.8,2.4-1.1C89.8,15.3,90.9,15.1,92.2,15.1z M94.9,28.5c0-0.4,0-0.9,0-1.6c0-0.7-0.1-1.4-0.2-2.1
		c-0.1-0.8-0.3-1.5-0.5-2.3c-0.2-0.8-0.5-1.5-0.9-2.1c-0.4-0.6-0.9-1.1-1.6-1.5c-0.6-0.4-1.4-0.6-2.4-0.6c-1.2,0-2.2,0.2-2.9,0.7
		s-1.3,1-1.7,1.6c-0.4,0.6-0.6,1.3-0.8,2c-0.1,0.7-0.2,1.4-0.2,1.9v7.2c0,0.7,0.1,1.4,0.2,2.3c0.2,0.8,0.4,1.6,0.8,2.4
		c0.4,0.7,0.9,1.4,1.6,1.9C87.1,38.7,88,39,89,39c1,0,1.9-0.3,2.7-0.8c0.7-0.5,1.3-1.3,1.8-2.2c0.5-0.9,0.8-2,1-3.3
		C94.8,31.4,94.9,30,94.9,28.5z"/>
	<path id="XMLID_437_" class="st0" d="M113.4,25.7c-0.3,0-0.4,0.2-0.4,0.5c0,1.8,0.2,3.4,0.5,4.7c0.3,1.3,0.8,2.4,1.4,3.2
		c0.6,0.8,1.4,1.4,2.3,1.8c0.9,0.4,2,0.6,3.2,0.6c0.9,0,1.7-0.1,2.5-0.3c0.7-0.2,1.3-0.4,1.9-0.7c0.5-0.3,1-0.5,1.3-0.7
		c0.3-0.2,0.6-0.4,0.7-0.5c0.2-0.1,0.4-0.1,0.6,0.1c0.1,0.2,0.1,0.4,0,0.7c-0.1,0.1-0.2,0.3-0.4,0.6c-0.2,0.3-0.5,0.7-0.8,1.1
		c-0.4,0.4-0.8,0.8-1.3,1.3c-0.5,0.4-1.2,0.9-1.9,1.2c-0.7,0.4-1.6,0.7-2.5,0.9c-1,0.2-2,0.4-3.2,0.4c-1.8,0-3.4-0.3-4.8-0.8
		c-1.4-0.6-2.7-1.4-3.7-2.4c-1-1.1-1.8-2.4-2.4-3.9c-0.6-1.5-0.8-3.3-0.8-5.2c0-2.1,0.3-4,1-5.6c0.7-1.6,1.6-3,2.7-4.1
		c1.1-1.1,2.4-1.9,3.8-2.5c1.4-0.6,2.9-0.9,4.3-0.9c1.4,0,2.6,0.2,3.7,0.6c1.1,0.4,2,0.9,2.7,1.5c0.8,0.6,1.4,1.3,1.9,2.1
		c0.5,0.8,0.9,1.5,1.2,2.3c0.3,0.7,0.5,1.4,0.7,2.1c0.1,0.7,0.2,1.2,0.2,1.6c0,0.2-0.1,0.3-0.2,0.4c-0.1,0.1-0.3,0.1-0.5,0.1H113.4z
		 M113.1,23.9c0,0.2,0.1,0.3,0.3,0.3c0.1,0,0.2,0,0.5,0c0.3,0,0.7,0,1.1,0c0.4,0,0.9,0,1.4-0.1c0.5,0,1,0,1.4-0.1s0.8,0,1.2,0
		c0.3,0,0.5,0,0.6,0c0.3,0,0.6-0.1,0.9-0.4c0.3-0.2,0.5-0.6,0.5-1.2c0-0.5-0.1-1.1-0.2-1.8c-0.1-0.7-0.4-1.3-0.7-1.9
		c-0.3-0.6-0.7-1.1-1.2-1.5c-0.5-0.4-1.1-0.6-1.8-0.6c-0.6,0-1,0.1-1.4,0.4c-0.4,0.3-0.8,0.7-1.1,1.1c-0.3,0.5-0.5,1-0.7,1.6
		c-0.2,0.6-0.4,1.1-0.5,1.7c-0.1,0.5-0.2,1-0.3,1.5C113.1,23.3,113.1,23.7,113.1,23.9z"/>
	<path id="XMLID_441_" class="st0" d="M130.9,38c0,0,0-0.3-0.1-0.8c-0.1-0.5-0.2-1-0.3-1.6c-0.1-0.6-0.2-1.1-0.3-1.6
		c-0.1-0.5-0.1-0.8-0.1-0.9c0-0.2,0-0.4,0.2-0.4c0.2,0,0.3,0,0.4,0.1c0,0.1,0.1,0.2,0.3,0.6c0.2,0.3,0.5,0.7,0.9,1.2
		c0.4,0.5,0.8,1,1.3,1.5c0.5,0.5,1.1,1,1.8,1.5c0.6,0.5,1.4,0.8,2.1,1.1c0.8,0.3,1.6,0.4,2.5,0.4c1,0,1.8-0.3,2.4-0.8
		c0.6-0.6,0.9-1.3,0.9-2.2c0-0.5-0.1-1-0.2-1.4c-0.1-0.5-0.4-0.9-0.8-1.4c-0.4-0.5-1-0.9-1.8-1.4c-0.8-0.5-1.8-0.9-3.1-1.4
		c-1.2-0.4-2.2-0.9-3-1.5c-0.8-0.6-1.4-1.2-1.9-1.9c-0.5-0.7-0.9-1.5-1.1-2.3c-0.2-0.8-0.3-1.7-0.3-2.6c0-0.7,0.1-1.5,0.4-2.3
		c0.2-0.8,0.7-1.6,1.3-2.3c0.6-0.7,1.5-1.3,2.7-1.8c1.1-0.5,2.6-0.7,4.3-0.7c1.1,0,2.1,0.1,3.1,0.3c0.9,0.2,1.8,0.4,2.5,0.6
		c0.7,0.2,1.3,0.4,1.7,0.6c0.4,0.2,0.7,0.3,0.7,0.3c0.1,0.1,0.2,0.1,0.2,0.1c0,0,0,0.1,0.1,0.2c0,0,0,0.3,0.1,0.7s0.2,0.9,0.3,1.5
		c0.1,0.5,0.2,1,0.3,1.5c0.1,0.4,0.1,0.7,0.1,0.7c0,0.2,0,0.3-0.2,0.4c-0.2,0.1-0.3,0-0.4-0.1c-0.2-0.4-0.6-0.8-1.2-1.4
		c-0.5-0.6-1.2-1.2-1.9-1.8c-0.8-0.6-1.6-1.1-2.5-1.5c-0.9-0.4-1.9-0.7-3-0.7c-1.1,0-1.9,0.3-2.4,0.9c-0.5,0.6-0.8,1.3-0.8,2.1
		c0,0.4,0.1,0.8,0.2,1.2c0.1,0.4,0.4,0.8,0.8,1.2c0.4,0.4,1,0.8,1.8,1.1c0.8,0.4,1.8,0.8,3.1,1.2c2.6,0.8,4.6,1.9,5.9,3.3
		c1.3,1.4,2,3.1,2,5.3c0,1.1-0.2,2.1-0.6,3.1c-0.4,0.9-1,1.7-1.7,2.4c-0.8,0.7-1.8,1.2-3,1.6c-1.2,0.4-2.7,0.6-4.3,0.6
		c-1.4,0-2.7-0.1-3.7-0.3c-1.1-0.2-2-0.4-2.8-0.7c-0.8-0.2-1.3-0.5-1.8-0.7c-0.4-0.2-0.7-0.4-0.7-0.4c0,0-0.1-0.1-0.1-0.2
		C130.9,38.1,130.9,38.1,130.9,38z"/>
</g>
</svg>
