<?xml version="1.0" encoding="utf-8"?>
<!-- Generator: Adobe Illustrator 19.0.0, SVG Export Plug-In . SVG Version: 6.00 Build 0)  -->
<svg version="1.1" id="Layer_1" xmlns="http://www.w3.org/2000/svg" xmlns:xlink="http://www.w3.org/1999/xlink" x="0px" y="0px"
	 viewBox="0 0 150 19.3" style="enable-background:new 0 0 150 19.3;" xml:space="preserve">
<style type="text/css">
	.st0{fill:#3D3530;}
</style>
<g id="XMLID_450_">
	<path id="XMLID_451_" class="st0" d="M14.5,19.3h-2.8c-0.5,0-0.9-0.2-1.2-0.6l-4.4-6.4C6,12,5.8,11.8,5.6,11.7
		c-0.2-0.1-0.4-0.1-0.8-0.1H3.1v7.7H0V0.2h5.6c1.3,0,2.3,0.1,3.2,0.4c0.9,0.3,1.6,0.6,2.2,1.1c0.6,0.5,1,1,1.3,1.7
		c0.3,0.7,0.4,1.4,0.4,2.2c0,0.7-0.1,1.3-0.3,1.9C12.3,8,12,8.5,11.6,9c-0.4,0.5-0.8,0.9-1.4,1.2c-0.5,0.3-1.2,0.6-1.9,0.8
		c0.4,0.2,0.7,0.6,1,1L14.5,19.3z M5.5,9.3c0.7,0,1.3-0.1,1.9-0.3c0.5-0.2,1-0.4,1.3-0.7c0.4-0.3,0.6-0.7,0.8-1.1
		c0.2-0.4,0.3-0.9,0.3-1.4c0-1-0.3-1.8-1-2.4C8,2.9,7,2.6,5.6,2.6H3.1v6.7H5.5z"/>
	<path id="XMLID_454_" class="st0" d="M28.7,16.8l0,2.5H16.8V0.2h11.9v2.5h-8.8v5.7h7v2.4h-7v5.9H28.7z"/>
	<path id="XMLID_456_" class="st0" d="M35.2,2.7v6.1h7.5v2.5h-7.5v8h-3.1V0.2h11.9v2.5H35.2z"/>
	<path id="XMLID_459_" class="st0" d="M50.1,19.3H47V0.2h3.1V19.3z"/>
	<path id="XMLID_462_" class="st0" d="M70.4,0.2v19.1h-1.6c-0.2,0-0.4,0-0.6-0.1c-0.2-0.1-0.3-0.2-0.5-0.4L57.3,5.3
		c0,0.3,0,0.5,0.1,0.8c0,0.3,0,0.5,0,0.7v12.5h-2.7V0.2h1.6c0.1,0,0.2,0,0.3,0c0.1,0,0.2,0,0.3,0.1c0.1,0,0.2,0.1,0.2,0.2
		c0.1,0.1,0.1,0.2,0.2,0.3l10.5,13.5c0-0.3,0-0.5-0.1-0.8c0-0.3,0-0.5,0-0.7V0.2H70.4z"/>
	<path id="XMLID_464_" class="st0" d="M86.9,16.8l0,2.5H75V0.2h11.9v2.5h-8.8v5.7h7v2.4h-7v5.9H86.9z"/>
	<path id="XMLID_466_" class="st0" d="M104.7,19.3h-2.8c-0.5,0-0.9-0.2-1.2-0.6l-4.4-6.4c-0.2-0.2-0.3-0.4-0.5-0.5
		c-0.2-0.1-0.4-0.1-0.8-0.1h-1.7v7.7h-3.1V0.2h5.6c1.3,0,2.3,0.1,3.2,0.4c0.9,0.3,1.6,0.6,2.2,1.1c0.6,0.5,1,1,1.3,1.7
		c0.3,0.7,0.4,1.4,0.4,2.2c0,0.7-0.1,1.3-0.3,1.9c-0.2,0.6-0.5,1.1-0.9,1.6c-0.4,0.5-0.8,0.9-1.4,1.2c-0.5,0.3-1.2,0.6-1.9,0.8
		c0.4,0.2,0.7,0.6,1,1L104.7,19.3z M95.7,9.3c0.7,0,1.3-0.1,1.9-0.3c0.5-0.2,1-0.4,1.3-0.7c0.4-0.3,0.6-0.7,0.8-1.1
		c0.2-0.4,0.3-0.9,0.3-1.4c0-1-0.3-1.8-1-2.4c-0.7-0.5-1.7-0.8-3.1-0.8h-2.5v6.7H95.7z"/>
	<path id="XMLID_469_" class="st0" d="M113.9,11.8v7.5h-3.1v-7.5l-7-11.6h2.7c0.3,0,0.5,0.1,0.6,0.2s0.3,0.3,0.4,0.5l3.9,6.8
		c0.2,0.3,0.3,0.7,0.5,1c0.1,0.3,0.3,0.6,0.4,0.9c0.1-0.3,0.2-0.6,0.4-0.9c0.1-0.3,0.3-0.6,0.5-1l3.9-6.8c0.1-0.2,0.2-0.3,0.4-0.5
		c0.2-0.1,0.4-0.2,0.6-0.2h2.7L113.9,11.8z"/>
	<path id="XMLID_471_" class="st0" d="M133.8,16.6c0.3,0,0.6,0.1,0.7,0.3c0.2,0.2,0.3,0.4,0.3,0.7v1.7h-12.9v-1c0-0.2,0-0.4,0.1-0.6
		c0.1-0.2,0.2-0.4,0.4-0.6l5.9-5.9c0.5-0.5,1-1,1.3-1.4c0.4-0.5,0.7-0.9,1-1.4c0.3-0.5,0.5-0.9,0.6-1.4c0.1-0.5,0.2-1,0.2-1.5
		c0-0.5-0.1-0.9-0.2-1.3c-0.2-0.4-0.4-0.7-0.6-1c-0.3-0.3-0.6-0.4-1-0.6c-0.4-0.1-0.8-0.2-1.2-0.2c-0.4,0-0.8,0.1-1.2,0.2
		s-0.7,0.3-1,0.5c-0.3,0.2-0.5,0.5-0.7,0.8c-0.2,0.3-0.3,0.6-0.4,1c-0.1,0.4-0.3,0.6-0.5,0.7s-0.5,0.2-0.9,0.1l-1.5-0.3
		c0.1-0.9,0.4-1.7,0.7-2.4c0.4-0.7,0.8-1.2,1.4-1.7c0.6-0.5,1.2-0.8,1.9-1c0.7-0.2,1.5-0.4,2.3-0.4c0.8,0,1.6,0.1,2.3,0.4
		c0.7,0.3,1.3,0.6,1.8,1.1c0.5,0.5,0.9,1,1.2,1.7c0.3,0.7,0.4,1.4,0.4,2.2c0,0.7-0.1,1.4-0.3,2c-0.2,0.6-0.5,1.2-0.8,1.7
		c-0.4,0.5-0.8,1.1-1.2,1.6c-0.5,0.5-1,1-1.5,1.6l-4.6,4.7c0.4-0.1,0.8-0.2,1.1-0.3c0.4-0.1,0.7-0.1,1.1-0.1H133.8z"/>
	<path id="XMLID_473_" class="st0" d="M145.1,11.8c0.2-0.2,0.3-0.4,0.5-0.6c0.1-0.2,0.3-0.4,0.4-0.6c-0.5,0.3-1,0.6-1.5,0.7
		c-0.6,0.2-1.2,0.3-1.8,0.3c-0.7,0-1.3-0.1-2-0.4c-0.6-0.2-1.2-0.6-1.7-1c-0.5-0.5-0.9-1-1.2-1.7c-0.3-0.7-0.4-1.5-0.4-2.4
		c0-0.8,0.2-1.6,0.5-2.4c0.3-0.7,0.8-1.4,1.3-1.9c0.6-0.6,1.2-1,2-1.3c0.8-0.3,1.7-0.5,2.6-0.5c0.9,0,1.8,0.2,2.6,0.5s1.4,0.7,2,1.3
		c0.5,0.6,1,1.2,1.2,2c0.3,0.8,0.4,1.6,0.4,2.5c0,0.6-0.1,1.1-0.2,1.6c-0.1,0.5-0.2,1-0.4,1.5c-0.2,0.5-0.4,1-0.7,1.4
		c-0.3,0.5-0.6,0.9-0.9,1.4l-4.5,6.4c-0.1,0.2-0.3,0.4-0.6,0.5c-0.3,0.1-0.6,0.2-0.9,0.2h-2.6L145.1,11.8z M140.2,5.9
		c0,1.1,0.3,2,0.9,2.6c0.6,0.6,1.4,0.9,2.5,0.9c0.6,0,1.1-0.1,1.5-0.3c0.4-0.2,0.8-0.4,1.1-0.7c0.3-0.3,0.5-0.7,0.7-1.1
		s0.2-0.9,0.2-1.3c0-0.6-0.1-1.1-0.3-1.5c-0.2-0.4-0.4-0.8-0.7-1.1c-0.3-0.3-0.7-0.5-1.1-0.7c-0.4-0.2-0.9-0.2-1.4-0.2
		c-0.5,0-1,0.1-1.5,0.3c-0.4,0.2-0.8,0.4-1.1,0.7c-0.3,0.3-0.5,0.7-0.7,1.1C140.3,4.9,140.2,5.4,140.2,5.9z"/>
</g>
</svg>
