<?xml version="1.0" encoding="utf-8"?>
<!-- Generator: Adobe Illustrator 19.0.0, SVG Export Plug-In . SVG Version: 6.00 Build 0)  -->
<svg version="1.1" id="Layer_1" xmlns="http://www.w3.org/2000/svg" xmlns:xlink="http://www.w3.org/1999/xlink" x="0px" y="0px"
	 viewBox="0 0 150 41.2" style="enable-background:new 0 0 150 41.2;" xml:space="preserve">
<style type="text/css">
	.st0{fill:#3D3530;}
</style>
<g id="XMLID_314_">
	<g id="XMLID_315_">
		<path id="XMLID_316_" class="st0" d="M13.9,41.2v0.1H3v-0.1h0.1c2.5,0,2.6-0.7,2.6-2.7V23.3c-1.9,0.1-3.5,1.7-4.5,3.4
			c-0.8,1.4-1.1,2.6-1.1,4.1H0v-7.6h16.9v7.6h-0.1c0-1.5-0.3-2.7-1.1-4.1c-1-1.7-2.6-3.3-4.5-3.4v15.2c0,2,0.1,2.7,2.6,2.7H13.9z"/>
		<path id="XMLID_318_" class="st0" d="M35.7,40.5c0.8,0,1.4-1.7,1.4-3.9c0-0.3,0-0.6-0.1-0.9h0.2c0,0.2,0.1,0.5,0.1,0.9
			c0,0,0,2-0.5,3.1c-0.3,0.7-0.9,1.8-3.3,1.8c-1,0-2-0.2-2.8-0.9c-0.8-0.6-1.1-1.7-1.1-3.2c0-0.6,0.1-2.1,0.1-2.9
			c0-2.6-0.9-2.8-2.5-2.8h-1v6.6c0,2,0.3,2.7,2.2,2.7h0.3v0.1H18v-0.1h0.2c2.5,0,2.6-0.7,2.6-2.7V26c0-2-0.1-2.7-2.6-2.7H18v-0.1
			h9.2c2,0,5.7,0.1,7.4,2.5c0.4,0.6,0.6,1.3,0.6,1.9c0,0.4-0.1,0.7-0.2,1.1c-0.9,2.3-3.7,2.8-5.1,3.2c0.9,0.2,2.6,0.5,3.7,1.3
			c1.4,1,1.5,2.6,1.5,3.9v2.3C35.1,40.2,35.2,40.5,35.7,40.5z M27.1,31.8c1.5,0,2.3-0.2,2.8-1.4c0.1-0.3,0.1-1.1,0.1-2
			c0-1.6-0.1-3.5-0.6-4.1c-0.6-0.8-1.4-0.9-2.5-0.9h-0.8v8.4H27.1z"/>
		<path id="XMLID_342_" class="st0" d="M48.7,41.2c0.9,0,1.4-0.2,1.4-1c0-0.5-0.3-1.2-0.5-1.9l-1.5-4.6h-5c-0.5,1.5-1,3-1,4.4
			c0,0.7,0.1,1.3,0.5,1.9c0.7,1.1,2,1.1,3,1.1v0.1h-8.1v-0.1c2.8,0,3.8-2.5,4.7-5.2l4.2-12.8h3.9l5.4,16.5c0.4,1.3,1,1.6,2.2,1.6
			v0.1H47.7v-0.1L48.7,41.2L48.7,41.2z M48.1,33.7l-2.3-7.7l-2.6,7.7H48.1z"/>
		<path id="XMLID_345_" class="st0" d="M65.2,24.4c0,0.5,0.2,1.2,0.3,1.6L69,38.4l2.6-9.2c0.2-0.8,0.5-1.9,0.5-2.9
			c0-0.7-0.1-1.4-0.5-1.9c-0.7-1-1.6-1-2.5-1v-0.1h6.6v0.1c0,0-0.5,0-0.8,0c-1.7,0.3-2.2,2.6-2.6,3.9l-4,14.1h-4.2l-4.9-16
			c-0.6-1.9-1.3-2-2.5-2h-0.3v-0.1h10.7v0.1C65.5,23.3,65.2,23.8,65.2,24.4z"/>
		<path id="XMLID_356_" class="st0" d="M85.8,41.2c1.1,0,2.3-0.1,2.8-0.4c2.5-1.1,4-2.7,4.2-7.5h0.1v8.1H76.4v-0.1h0.1
			c2.5,0,2.6-0.7,2.6-2.7V26c0-2-0.2-2.7-2.6-2.7h-0.1v-0.1h15.7v7H92c0-1.9-0.8-4.2-3-5.7c-1.3-0.9-2.4-1.1-4.5-1.1v8.3
			c2.2,0,3.3-0.7,4.1-2.7c0.1-0.2,0.2-1,0.2-1.8H89v9.1h-0.2c0-0.7-0.2-1.6-0.2-1.8c-0.8-2-1.9-2.7-4.1-2.7v6.8
			C84.5,41,84.7,41.2,85.8,41.2z"/>
		<path id="XMLID_369_" class="st0" d="M106.2,40.8c2.5-1.1,4-2.7,4.2-7.5h0.2v8.1H94.6v-0.1h0.1c2.5,0,2.6-0.7,2.6-2.7V26
			c0-2-0.2-2.7-2.6-2.7h-0.1v-0.1h10.9v0.1h-0.2c-2.5,0-2.6,0.7-2.6,2.7v12.5c0,2.4,0.1,2.7,1.2,2.7
			C104.8,41.2,105.7,41.1,106.2,40.8z"/>
		<path id="XMLID_371_" class="st0" d="M121.4,41.2c1.1,0,2.3-0.1,2.8-0.4c2.5-1.1,4-2.7,4.2-7.5h0.1v8.1H112v-0.1h0.1
			c2.5,0,2.6-0.7,2.6-2.7V26c0-2-0.2-2.7-2.6-2.7H112v-0.1h15.7v7h-0.1c0-1.9-0.8-4.2-3-5.7c-1.3-0.9-2.4-1.1-4.5-1.1v8.3
			c2.2,0,3.3-0.7,4.1-2.7c0.1-0.2,0.2-1,0.2-1.8h0.2v9.1h-0.2c0-0.7-0.2-1.6-0.2-1.8c-0.8-2-1.9-2.7-4.1-2.7v6.8
			C120.1,41,120.3,41.2,121.4,41.2z"/>
		<path id="XMLID_373_" class="st0" d="M148,40.5c0.8,0,1.4-1.7,1.4-3.9c0-0.3,0-0.6-0.1-0.9h0.2c0,0.2,0.1,0.5,0.1,0.9
			c0,0,0,2-0.5,3.1c-0.3,0.7-0.9,1.8-3.3,1.8c-1,0-2-0.2-2.8-0.9c-0.8-0.6-1.1-1.7-1.1-3.2c0-0.6,0.1-2.1,0.1-2.9
			c0-2.6-0.9-2.8-2.5-2.8h-1v6.6c0,2,0.3,2.7,2.2,2.7h0.3v0.1h-10.6v-0.1h0.2c2.5,0,2.6-0.7,2.6-2.7V26c0-2-0.1-2.7-2.6-2.7h-0.2
			v-0.1h9.2c2,0,5.7,0.1,7.4,2.5c0.4,0.6,0.6,1.3,0.6,1.9c0,0.4-0.1,0.7-0.2,1.1c-0.9,2.3-3.7,2.8-5.1,3.2c0.9,0.2,2.6,0.5,3.7,1.3
			c1.4,1,1.5,2.6,1.5,3.9v2.3C147.4,40.2,147.5,40.5,148,40.5z M139.4,31.8c1.5,0,2.3-0.2,2.8-1.4c0.1-0.3,0.1-1.1,0.1-2
			c0-1.6-0.1-3.5-0.6-4.1c-0.6-0.8-1.4-0.9-2.5-0.9h-0.8v8.4H139.4z"/>
	</g>
	<g id="XMLID_376_">
		<path id="XMLID_377_" class="st0" d="M36.1,3.6c0.8,0,0.9-0.5,0.9-0.7h0.1v4.6h-0.1C37,6.4,36,3.8,34.6,3.1
			c-0.2-0.1-0.7-0.3-1.2-0.3c-0.2,0-0.5,0-0.6,0.2c-1.1,0.8-1.2,2.8-1.2,4v1.5c0,1.6,0.4,4.1,2.4,4.1c0.6,0,1.2-0.2,1.6-0.4
			c1.5-0.9,1.7-2.5,1.9-3.5h0.1c-0.2,1.4-0.5,2.8-2,3.6c-0.5,0.3-1.3,0.4-2,0.4c-1,0-2.1-0.2-2.9-0.7C29,11,28.4,9.3,28.4,8
			c0-1.5,0.7-3.5,2.4-4.5c0.4-0.3,1.5-0.8,2.5-0.8C34.8,2.8,35.3,3.6,36.1,3.6z"/>
		<path id="XMLID_380_" class="st0" d="M43.5,12.7c-2.7,0-4.8-2.3-4.8-5s2.1-5,4.8-5c2.7,0,4.8,2.3,4.8,5S46.2,12.7,43.5,12.7z
			 M45.2,6.9c0-1.9-0.1-4.1-1.8-4.1c-1.7,0-1.8,2.2-1.8,4.1v0.8v0.8c0,1.9,0.1,4,1.8,4c1.7,0,1.8-2.2,1.8-4V7.7V6.9z"/>
		<path id="XMLID_383_" class="st0" d="M49.1,3L49.1,3l4.5-0.1l3.6,7V5.2c0-1.6-0.3-2.2-1.4-2.2h-0.1V2.9h3.2V3h-0.1
			c-1.2,0-1.4,0.6-1.4,2.2v7.3H55l-4.4-8.5v6.2c0,1.6,0.2,2.2,1.4,2.2h0.1v0.1H49v-0.1h0.1c1.2,0,1.4-0.6,1.4-2.2V4.4
			C50.6,3.4,50.5,3,49.1,3L49.1,3z"/>
		<path id="XMLID_385_" class="st0" d="M59.2,3L59.2,3l5.2-0.1c1.7,0,3.2,0.1,4.4,2.3c0.4,0.7,0.6,1.6,0.6,2.6
			c0,1.1-0.3,2.1-0.7,2.9c-1.1,1.9-2.7,1.9-4.1,1.9h-5.4v-0.1h0.1c1.3,0,1.4-0.4,1.4-1.4V4.4C60.6,3.4,60.6,3,59.2,3L59.2,3z
			 M63.5,3V11c0,1.2,0.1,1.4,1,1.4c0.4,0,0.9-0.1,1.1-0.2c0.8-0.4,0.8-1.6,0.8-4.7c0-2.2,0-3.3-0.5-4C65.4,3,64.7,3,64.2,3H63.5z"/>
		<path id="XMLID_393_" class="st0" d="M75.2,12.5c0.6,0,1.2-0.1,1.5-0.2c1.3-0.6,2.1-1.4,2.2-4H79v4.3h-8.8v-0.1h0.1
			c1.3,0,1.4-0.4,1.4-1.4V4.4c0-1.1-0.1-1.4-1.4-1.4h-0.1V2.9h8.3v3.7h-0.1c0-1-0.4-2.2-1.6-3C76.2,3.1,75.6,3,74.5,3v4.4
			c1.2,0,1.8-0.4,2.2-1.4c0-0.1,0.1-0.6,0.1-1h0.1v4.8h-0.1c0-0.4-0.1-0.8-0.1-0.9c-0.4-1-1-1.4-2.2-1.4V11
			C74.5,12.4,74.6,12.5,75.2,12.5z M75.8,0.4c0,0.7-1.2,0.8-1.7,1.6l-0.1,0C74.6,1.2,74.6,0,75.3,0C75.7,0,75.8,0.3,75.8,0.4z"/>
		<path id="XMLID_405_" class="st0" d="M82.1,3L82.1,3l4.5-0.1l3.6,7V5.2C90.2,3.6,90,3,88.8,3h-0.1V2.9h3.2V3h-0.1
			c-1.2,0-1.4,0.6-1.4,2.2v7.3h-2.2l-4.4-8.5v6.2c0,1.6,0.2,2.2,1.4,2.2h0.1v0.1H82v-0.1h0.1c1.2,0,1.4-0.6,1.4-2.2V4.4
			C83.6,3.4,83.5,3,82.1,3L82.1,3z"/>
		<path id="XMLID_408_" class="st0" d="M97.8,12.5c0.5,0,0.7-0.1,0.7-0.5c0-0.3-0.1-0.6-0.2-1l-0.8-2.4h-2.6
			c-0.3,0.8-0.6,1.6-0.6,2.3c0,0.4,0.1,0.7,0.3,1c0.4,0.6,1.1,0.6,1.6,0.6v0.1h-4.3v-0.1c1.5,0,2-1.3,2.5-2.8l2.3-6.8h2l2.9,8.7
			c0.2,0.7,0.5,0.8,1.2,0.8v0.1h-5.5v-0.1L97.8,12.5L97.8,12.5z M97.4,8.5l-1.2-4.1l-1.4,4.1H97.4z"/>
		<path id="XMLID_412_" class="st0" d="M103.6,12.5L103.6,12.5l-0.1-4.3h0.1c0,1.2,0.6,2.4,1.5,3.2c0.7,0.6,1.5,1,2.4,1
			c1.3,0,1.6-1,1.6-1.7c0-1.3-1.3-1.6-2.1-1.9l-0.7-0.2c-1.3-0.4-2.8-1.1-2.8-2.8c0-0.5,0.1-1,0.4-1.4c0.5-0.8,2-1.7,3.3-1.7
			c0.6,0,0.9,0.1,1.3,0.2c0.4,0.1,0.7,0.3,1.1,0.3c0.4,0,0.8-0.1,0.8-0.6h0.1v3.5h-0.1c0-0.8-0.2-1.5-1-2.4c-0.6-0.8-1.4-1-2.1-1
			c-0.5,0-0.9,0.1-1.3,0.6c-0.1,0.2-0.2,0.5-0.2,0.8c0,1.5,1.5,1.7,1.9,1.8l0.6,0.1c0.7,0.2,3,0.6,3,3c0,0.8-0.3,1.6-1,2.3
			c-0.8,0.8-1.6,1.1-2.7,1.1c-1.5,0-2.7-0.7-3.4-0.7C104,12,103.7,12.1,103.6,12.5z"/>
		<path id="XMLID_414_" class="st0" d="M119.3,12.5L119.3,12.5l-5.8,0.1v-0.1h0.1c1.3,0,1.4-0.4,1.4-1.4V3c-1,0-1.9,0.9-2.4,1.8
			c-0.4,0.7-0.6,1.4-0.6,2.2h-0.1v-4h8.9v4h-0.1c0-0.8-0.1-1.4-0.6-2.2c-0.5-0.9-1.4-1.8-2.4-1.8V11
			C117.8,12.1,117.9,12.5,119.3,12.5L119.3,12.5z"/>
	</g>
	<rect id="XMLID_416_" x="0.2" y="17.5" class="st0" width="148.8" height="0.5"/>
</g>
</svg>
